<?xml version="1.0" encoding="utf-8"?>
<!-- Generator: Adobe Illustrator 19.0.0, SVG Export Plug-In . SVG Version: 6.00 Build 0)  -->
<svg version="1.2" baseProfile="tiny" id="Layer_1" xmlns="http://www.w3.org/2000/svg" xmlns:xlink="http://www.w3.org/1999/xlink"
	 x="0px" y="0px" viewBox="0 0 256 256" xml:space="preserve">
<rect id="XMLID_37_" x="51.625" y="107.439" fill="#FFFFFF" width="152.75" height="96.936"/>
<g>
	<path fill="#567EC0" d="M207.103,50.163h-17.416V69.25c0,11.338-9.224,20.563-20.563,20.563c-11.338,0-20.563-9.224-20.563-20.563
		V50.163h-41.125V69.25c0,11.338-9.224,20.563-20.563,20.563c-11.338,0-20.563-9.224-20.563-20.563V50.163H48.897
		C40.683,50.163,34,56.753,34,64.851v33.776v108.686C34,215.411,40.683,222,48.897,222h158.206c8.214,0,14.897-6.589,14.897-14.688
		V98.626V64.851C222,56.753,215.317,50.163,207.103,50.163z M204.375,204.375H51.625v-96.936h152.75V204.375z"/>
	<path id="XMLID_34_" fill="#4767B0" d="M86.875,78.063c4.867,0,8.813-3.946,8.813-8.813V42.813c0-4.867-3.946-8.813-8.813-8.813
		c-4.867,0-8.813,3.946-8.813,8.813V69.25C78.063,74.117,82.008,78.063,86.875,78.063z"/>
	<path id="XMLID_33_" fill="#4767B0" d="M169.125,78.063c4.867,0,8.813-3.946,8.813-8.813V42.813c0-4.867-3.946-8.813-8.813-8.813
		c-4.867,0-8.813,3.946-8.813,8.813V69.25C160.313,74.117,164.258,78.063,169.125,78.063z"/>
	<rect id="XMLID_32_" x="69.25" y="122.125" fill="#4767B0" width="29.375" height="29.375"/>
	<rect id="XMLID_31_" x="69.25" y="163.25" fill="#4767B0" width="29.375" height="29.375"/>
	<rect id="XMLID_30_" x="113.313" y="122.125" fill="#4767B0" width="29.375" height="29.375"/>
	<rect id="XMLID_29_" x="113.313" y="163.25" fill="#4767B0" width="29.375" height="29.375"/>
	<rect id="XMLID_28_" x="157.375" y="122.125" fill="#4767B0" width="29.375" height="29.375"/>
	<rect id="XMLID_27_" x="157.375" y="163.25" fill="#4767B0" width="29.375" height="29.375"/>
</g>
</svg>
